<?xml version="1.0" encoding="UTF-8"?><svg xmlns="http://www.w3.org/2000/svg" xmlns:xlink="http://www.w3.org/1999/xlink" width="24px" height="24px" viewBox="0 0 24 24" version="1.1"><title>gitlab</title><g id="Page-1" stroke="none" stroke-width="1" fill="none" fill-rule="evenodd" stroke-linecap="round" stroke-linejoin="round"><g id="Artboard" transform="translate(-919.000000, -1691.000000)" stroke="#fff" stroke-width="2"><g id="gitlab" transform="translate(920.000000, 1692.000000)"><path d="M21.65 13.39L11 21.13.35 13.39a.84.84 0 0 1-.3-.94l1.22-3.78 2.44-7.51A.43.43 0 0 1 4.4 1a.42.42 0 0 1 .11.18l2.44 7.49h8.1l2.44-7.51a.43.43 0 0 1 .69-.16.42.42 0 0 1 .11.18l2.44 7.51L22 12.45a.84.84 0 0 1-.35.94z" id="Shape"/></g></g></g><metadata><rdf:RDF xmlns:rdf="http://www.w3.org/1999/02/22-rdf-syntax-ns#" xmlns:rdfs="http://www.w3.org/2000/01/rdf-schema#" xmlns:dc="http://purl.org/dc/elements/1.1/"><rdf:Description about="https://iconscout.com/legal#licenses" dc:title="gitlab" dc:description="gitlab" dc:publisher="Iconscout" dc:date="2017-09-15" dc:format="image/svg+xml" dc:language="en"><dc:creator><rdf:Bag><rdf:li>Feather Icons</rdf:li></rdf:Bag></dc:creator></rdf:Description></rdf:RDF></metadata></svg>