<?xml version="1.0" encoding="UTF-8"?>
<svg xmlns="http://www.w3.org/2000/svg" xmlns:xlink="http://www.w3.org/1999/xlink" viewBox="0 0 64 64" width="64px" height="64px">
<g id="surface11548881">
<path style=" stroke:none;fill-rule:nonzero;fill:rgb(100%,100%,100%);fill-opacity:1;" d="M 32 6 C 17.640625 6 6 17.640625 6 32 C 6 44.277344 14.511719 54.558594 25.953125 57.285156 C 25.363281 57.144531 24.777344 56.988281 24.199219 56.808594 L 24.199219 50.851562 C 24.199219 50.851562 23.226562 51.175781 21.925781 51.175781 C 18.289062 51.175781 16.777344 47.929688 16.398438 46.300781 C 16.171875 45.308594 15.574219 44.367188 14.929688 43.789062 C 14.164062 43.105469 13.804688 43.105469 13.800781 42.871094 C 13.789062 42.378906 14.457031 42.398438 14.773438 42.398438 C 16.398438 42.398438 17.632812 44.128906 18.203125 45.023438 C 19.621094 47.230469 21.140625 47.601562 21.925781 47.601562 C 22.898438 47.601562 23.742188 47.453125 24.320312 47.175781 C 24.589844 45.285156 25.429688 43.605469 26.800781 42.398438 C 20.703125 41.179688 16.398438 37.683594 16.398438 32 C 16.398438 29.070312 17.574219 26.382812 19.53125 24.207031 C 19.332031 23.640625 19 22.492188 19 20.625 C 19 19.390625 19.085938 17.875 19.648438 16.398438 C 19.648438 16.398438 23.359375 16.425781 26.855469 19.738281 C 28.46875 19.269531 30.195312 19 32 19 C 33.804688 19 35.53125 19.269531 37.144531 19.738281 C 40.640625 16.425781 44.351562 16.398438 44.351562 16.398438 C 44.917969 17.875 45 19.390625 45 20.625 C 45 22.640625 44.730469 23.816406 44.566406 24.320312 C 46.464844 26.476562 47.601562 29.125 47.601562 32 C 47.601562 37.683594 43.296875 41.179688 37.199219 42.398438 C 38.828125 43.828125 39.800781 45.914062 39.800781 48.25 L 39.800781 56.808594 C 39.222656 56.988281 38.636719 57.144531 38.046875 57.285156 C 49.488281 54.558594 58 44.277344 58 32 C 58 17.640625 46.359375 6 32 6 Z M 33.8125 57.929688 C 33.214844 57.972656 32.609375 58 32 58 C 32.609375 58 33.214844 57.972656 33.8125 57.929688 Z M 37.785156 57.347656 C 36.621094 57.609375 35.429688 57.796875 34.210938 57.898438 C 35.429688 57.796875 36.621094 57.609375 37.785156 57.347656 Z M 32 58 C 31.390625 58 30.785156 57.972656 30.1875 57.929688 C 30.785156 57.972656 31.390625 58 32 58 Z M 29.789062 57.898438 C 28.570312 57.796875 27.378906 57.609375 26.214844 57.347656 C 27.378906 57.609375 28.570312 57.796875 29.789062 57.898438 Z M 29.789062 57.898438 "/>
</g>
</svg>
