<?xml version="1.0" encoding="UTF-8"?>
<svg xmlns="http://www.w3.org/2000/svg" xmlns:xlink="http://www.w3.org/1999/xlink" viewBox="0 0 30 30" width="30px" height="30px">
<g id="surface11605441">
<path style=" stroke:none;fill-rule:nonzero;fill:rgb(100%,100%,100%);fill-opacity:1;" d="M 15 3 C 8.371094 3 3 8.371094 3 15 C 3 21.628906 8.371094 27 15 27 C 21.628906 27 27 21.628906 27 15 C 27 8.371094 21.628906 3 15 3 Z M 10.496094 8.402344 C 11.339844 8.402344 11.898438 8.964844 11.898438 9.710938 C 11.898438 10.460938 11.339844 11.019531 10.402344 11.019531 C 9.5625 11.023438 9 10.460938 9 9.710938 C 9 8.964844 9.5625 8.402344 10.496094 8.402344 Z M 12 20 L 9 20 L 9 12 L 12 12 Z M 22 20 L 19.175781 20 L 19.175781 15.628906 C 19.175781 14.417969 18.421875 14.140625 18.140625 14.140625 C 17.859375 14.140625 16.917969 14.324219 16.917969 15.628906 C 16.917969 15.8125 16.917969 20 16.917969 20 L 14 20 L 14 12 L 16.917969 12 L 16.917969 13.117188 C 17.292969 12.464844 18.046875 12 19.460938 12 C 20.871094 12 22 13.117188 22 15.628906 Z M 22 20 "/>
</g>
</svg>
